<svg width="199" height="17" viewBox="0 0 199 17" fill="none" xmlns="http://www.w3.org/2000/svg">
<path d="M4.9556 16.2978C4.35295 16.2978 3.73258 16.2375 3.09448 16.117C2.45638 16.0035 1.86436 15.8653 1.31843 15.7022C0.7725 15.5321 0.34001 15.369 0.02096 15.213L0.34001 12.3203C0.83631 12.5613 1.35388 12.7847 1.89272 12.9903C2.43156 13.1959 2.98458 13.3625 3.55178 13.4901C4.11898 13.6178 4.69327 13.6816 5.27465 13.6816C5.99783 13.6816 6.57921 13.5398 7.01879 13.2562C7.45837 12.9726 7.67816 12.5401 7.67816 11.9587C7.67816 11.512 7.55409 11.154 7.30594 10.8846C7.05779 10.6081 6.67847 10.3634 6.16799 10.1507C5.65751 9.93096 5.00523 9.68281 4.21115 9.4063C3.41707 9.12979 2.70453 8.81783 2.07352 8.47042C1.44251 8.11592 0.94266 7.66925 0.57398 7.13041C0.2053 6.59157 0.02096 5.90384 0.02096 5.06722C0.02096 4.24478 0.223025 3.51451 0.627155 2.87641C1.03129 2.23122 1.63394 1.72783 2.43511 1.36624C3.24337 0.997559 4.2466 0.813219 5.44481 0.813219C6.35233 0.813219 7.21731 0.916024 8.03975 1.12163C8.86219 1.32015 9.5641 1.5364 10.1455 1.77037L9.86897 4.55674C9.03235 4.18097 8.24536 3.89737 7.508 3.70594C6.77773 3.50742 6.03328 3.40816 5.27465 3.40816C4.48057 3.40816 3.86729 3.53932 3.4348 3.80165C3.00231 4.06398 2.78606 4.45748 2.78606 4.98214C2.78606 5.40045 2.90659 5.73722 3.14765 5.99246C3.38871 6.2477 3.73258 6.46749 4.17925 6.65183C4.62592 6.82908 5.16121 7.01697 5.78513 7.21549C6.86281 7.55581 7.76679 7.93158 8.49706 8.3428C9.23442 8.74693 9.78744 9.23968 10.1561 9.82106C10.5319 10.3954 10.7198 11.1079 10.7198 11.9587C10.7198 12.3841 10.6524 12.8485 10.5177 13.3519C10.383 13.8482 10.1171 14.3197 9.72008 14.7663C9.32304 15.213 8.74166 15.5817 7.97594 15.8724C7.21731 16.156 6.21053 16.2978 4.9556 16.2978ZM19.4209 16.2978C18.0029 16.2978 16.7408 15.9787 15.6348 15.3406C14.5288 14.6954 13.6602 13.795 13.0292 12.6393C12.3982 11.4766 12.0827 10.1153 12.0827 8.5555C12.0827 6.9957 12.3982 5.63796 13.0292 4.48229C13.6602 3.31953 14.5288 2.4191 15.6348 1.781C16.7408 1.13581 18.0029 0.813219 19.4209 0.813219C20.8389 0.813219 22.1009 1.13581 23.2069 1.781C24.313 2.4191 25.1815 3.31953 25.8125 4.48229C26.4435 5.63796 26.759 6.9957 26.759 8.5555C26.759 10.1153 26.4435 11.4766 25.8125 12.6393C25.1815 13.795 24.313 14.6954 23.2069 15.3406C22.1009 15.9787 20.8389 16.2978 19.4209 16.2978ZM19.4209 13.6603C20.4135 13.6603 21.243 13.4405 21.9095 13.0009C22.5759 12.5613 23.0758 11.9587 23.409 11.193C23.7422 10.4202 23.9088 9.54101 23.9088 8.5555C23.9088 7.56999 23.7422 6.69437 23.409 5.92865C23.0758 5.15584 22.5759 4.54965 21.9095 4.11007C21.243 3.67049 20.4135 3.4507 19.4209 3.4507C18.4283 3.4507 17.5987 3.67049 16.9323 4.11007C16.2658 4.54965 15.766 5.15584 15.4327 5.92865C15.0995 6.69437 14.9329 7.56999 14.9329 8.5555C14.9329 9.54101 15.0995 10.4202 15.4327 11.193C15.766 11.9587 16.2658 12.5613 16.9323 13.0009C17.5987 13.4405 18.4283 13.6603 19.4209 13.6603ZM29.1363 16V1.111H34.4325C35.574 1.111 36.5382 1.28116 37.3252 1.62148C38.1122 1.9618 38.7078 2.48646 39.1119 3.19546C39.5231 3.90446 39.7287 4.81198 39.7287 5.91802C39.7287 7.03824 39.5267 7.96348 39.1225 8.69375C38.7184 9.41693 38.1264 9.95577 37.3465 10.3103C36.5666 10.6577 35.6165 10.8314 34.4963 10.8314H31.8588V16H29.1363ZM31.8588 8.5555H34.1773C35.106 8.5555 35.8009 8.34634 36.2617 7.92803C36.7297 7.50972 36.9636 6.8539 36.9636 5.96056C36.9636 5.06722 36.7261 4.41494 36.2511 4.00372C35.7831 3.5925 35.0706 3.38689 34.1134 3.38689H31.8588V8.5555ZM48.4218 16.2978C46.8479 16.2978 45.5008 15.9787 44.3805 15.3406C43.2603 14.6954 42.4024 13.7915 41.8069 12.6287C41.2113 11.4659 40.9135 10.1011 40.9135 8.53423C40.9135 6.98152 41.2432 5.62733 41.9026 4.47166C42.569 3.3089 43.4872 2.40847 44.6571 1.77037C45.8269 1.13227 47.174 0.813219 48.6984 0.813219C49.4853 0.813219 50.2369 0.894754 50.953 1.05782C51.6762 1.22089 52.293 1.43005 52.8035 1.68529L52.5057 4.28023C51.9739 4.03208 51.3855 3.83001 50.7403 3.67403C50.1022 3.51096 49.4215 3.42943 48.6984 3.42943C47.5923 3.42943 46.6848 3.65276 45.9758 4.09943C45.2668 4.53901 44.7421 5.14166 44.4018 5.90738C44.0615 6.66601 43.8913 7.52745 43.8913 8.49169C43.8913 9.50556 44.0615 10.4024 44.4018 11.1823C44.7492 11.9622 45.2668 12.5755 45.9545 13.0222C46.6423 13.4618 47.5001 13.6816 48.5282 13.6816C48.8402 13.6816 49.1663 13.6603 49.5066 13.6178C49.854 13.5752 50.2085 13.5185 50.5701 13.4476V10.7888H48.5282V8.53423H53.2927V15.1705C52.7751 15.4753 52.0874 15.7412 51.2295 15.9681C50.3787 16.1879 49.4428 16.2978 48.4218 16.2978Z" fill="#FFB213"/>
<path d="M60.007 16L62.0702 1.111H64.3036L67.9407 7.89613L71.5566 1.111H73.79L75.8532 16H73.0243L71.5992 4.81198L72.3436 4.96087L67.9407 12.8733L63.5166 4.98214L64.261 4.83325L62.8359 16H60.007ZM80.1954 16.2127C79.6282 16.2127 79.1106 16.0886 78.6427 15.8405C78.1748 15.5852 77.8025 15.2201 77.526 14.7451C77.2495 14.27 77.1113 13.6957 77.1113 13.0222C77.1113 12.4195 77.2495 11.9055 77.526 11.4801C77.8096 11.0476 78.1783 10.6896 78.6321 10.406C79.0929 10.1153 79.5892 9.88842 80.121 9.72535C80.6598 9.55519 81.188 9.43111 81.7056 9.35312C82.2302 9.27513 82.6911 9.22905 83.0881 9.21487C83.0598 8.60513 82.9038 8.162 82.6202 7.88549C82.3366 7.60898 81.8545 7.47073 81.1738 7.47073C80.6988 7.47073 80.2344 7.53808 79.7806 7.67279C79.334 7.80041 78.827 8.00248 78.2598 8.27899L78.0259 6.13072C78.664 5.81876 79.3021 5.58479 79.9402 5.42881C80.5854 5.27283 81.2376 5.19484 81.897 5.19484C82.6911 5.19484 83.3753 5.33664 83.9496 5.62024C84.5238 5.90384 84.967 6.36114 85.2789 6.99215C85.5909 7.61607 85.7469 8.44206 85.7469 9.47011V12.3416C85.7469 12.8733 85.7717 13.2597 85.8213 13.5008C85.8709 13.7347 85.9631 13.8836 86.0978 13.9474C86.2325 14.0113 86.4275 14.0432 86.6828 14.0432H87.0231L86.7891 16.2127H85.832C85.4349 16.2127 85.0804 16.1595 84.7685 16.0532C84.4636 15.9539 84.2013 15.8121 83.9815 15.6278C83.7617 15.4434 83.5844 15.2272 83.4497 14.979C83.1023 15.369 82.6308 15.6739 82.0353 15.8936C81.4468 16.1064 80.8335 16.2127 80.1954 16.2127ZM81.3014 14.192C81.5354 14.192 81.8261 14.1318 82.1735 14.0113C82.5209 13.8836 82.8329 13.6887 83.1094 13.4263V11.0015C82.6131 11.0228 82.1168 11.1044 81.6205 11.2462C81.1242 11.388 80.7094 11.5971 80.3762 11.8736C80.043 12.1501 79.8764 12.4975 79.8764 12.9158C79.8764 13.3483 79.9898 13.6709 80.2167 13.8836C80.4436 14.0892 80.8051 14.192 81.3014 14.192ZM88.4917 16V5.365H90.959L91.0228 6.49231C91.2923 6.19453 91.6716 5.89675 92.1608 5.59897C92.65 5.30119 93.1853 5.1523 93.7667 5.1523C93.9368 5.1523 94.0928 5.16648 94.2346 5.19484L94.0432 7.78978C93.8872 7.74724 93.7312 7.71888 93.5752 7.7047C93.4263 7.69052 93.2775 7.68343 93.1286 7.68343C92.6819 7.68343 92.2742 7.78623 91.9055 7.99184C91.5369 8.19745 91.2781 8.44915 91.1292 8.74693V16H88.4917ZM95.5125 16V5.365H98.1499V16H95.5125ZM95.5125 3.74848V1.111H98.1499V3.74848H95.5125ZM100.622 16V5.365H103.09L103.196 7.34311L102.579 6.53485C102.983 6.19453 103.465 5.88611 104.025 5.6096C104.586 5.33309 105.238 5.19484 105.982 5.19484C107.344 5.19484 108.354 5.6486 109.013 6.55612C109.673 7.45655 110.002 8.6264 110.002 10.0657V16H107.365V10.2784C107.365 9.28577 107.198 8.55195 106.865 8.07692C106.539 7.60189 106.004 7.36438 105.259 7.36438C104.656 7.36438 104.164 7.51327 103.781 7.81105C103.398 8.10174 103.061 8.49169 102.771 8.9809L103.26 7.68343V16H100.622ZM114.655 16.2127C114.088 16.2127 113.571 16.0886 113.103 15.8405C112.635 15.5852 112.262 15.2201 111.986 14.7451C111.709 14.27 111.571 13.6957 111.571 13.0222C111.571 12.4195 111.709 11.9055 111.986 11.4801C112.27 11.0476 112.638 10.6896 113.092 10.406C113.553 10.1153 114.049 9.88842 114.581 9.72535C115.12 9.55519 115.648 9.43111 116.165 9.35312C116.69 9.27513 117.151 9.22905 117.548 9.21487C117.52 8.60513 117.364 8.162 117.08 7.88549C116.796 7.60898 116.314 7.47073 115.634 7.47073C115.159 7.47073 114.694 7.53808 114.241 7.67279C113.794 7.80041 113.287 8.00248 112.72 8.27899L112.486 6.13072C113.124 5.81876 113.762 5.58479 114.4 5.42881C115.045 5.27283 115.698 5.19484 116.357 5.19484C117.151 5.19484 117.835 5.33664 118.409 5.62024C118.984 5.90384 119.427 6.36114 119.739 6.99215C120.051 7.61607 120.207 8.44206 120.207 9.47011V12.3416C120.207 12.8733 120.232 13.2597 120.281 13.5008C120.331 13.7347 120.423 13.8836 120.558 13.9474C120.692 14.0113 120.887 14.0432 121.143 14.0432H121.483L121.249 16.2127H120.292C119.895 16.2127 119.54 16.1595 119.228 16.0532C118.923 15.9539 118.661 15.8121 118.441 15.6278C118.222 15.4434 118.044 15.2272 117.91 14.979C117.562 15.369 117.091 15.6739 116.495 15.8936C115.907 16.1064 115.293 16.2127 114.655 16.2127ZM115.761 14.192C115.995 14.192 116.286 14.1318 116.633 14.0113C116.981 13.8836 117.293 13.6887 117.569 13.4263V11.0015C117.073 11.0228 116.577 11.1044 116.08 11.2462C115.584 11.388 115.169 11.5971 114.836 11.8736C114.503 12.1501 114.336 12.4975 114.336 12.9158C114.336 13.3483 114.45 13.6709 114.677 13.8836C114.903 14.0892 115.265 14.192 115.761 14.192ZM127.431 16L129.494 1.111H131.728L135.365 7.89613L138.981 1.111H141.214L143.277 16H140.448L139.023 4.81198L139.768 4.96087L135.365 12.8733L130.941 4.98214L131.685 4.83325L130.26 16H127.431ZM147.92 16.2127C147.289 16.2127 146.772 16.0886 146.368 15.8405C145.971 15.5852 145.676 15.2485 145.485 14.8301C145.294 14.4047 145.198 13.9368 145.198 13.4263V0.0474984H147.835V12.3416C147.835 12.9088 147.867 13.3129 147.931 13.5539C148.002 13.7879 148.13 13.9297 148.314 13.9793C148.498 14.0219 148.764 14.0432 149.112 14.0432L148.878 16.2127H147.92ZM153.083 16.2127C152.515 16.2127 151.998 16.0886 151.53 15.8405C151.062 15.5852 150.69 15.2201 150.413 14.7451C150.137 14.27 149.998 13.6957 149.998 13.0222C149.998 12.4195 150.137 11.9055 150.413 11.4801C150.697 11.0476 151.065 10.6896 151.519 10.406C151.98 10.1153 152.476 9.88842 153.008 9.72535C153.547 9.55519 154.075 9.43111 154.593 9.35312C155.117 9.27513 155.578 9.22905 155.975 9.21487C155.947 8.60513 155.791 8.162 155.507 7.88549C155.224 7.60898 154.742 7.47073 154.061 7.47073C153.586 7.47073 153.122 7.53808 152.668 7.67279C152.221 7.80041 151.714 8.00248 151.147 8.27899L150.913 6.13072C151.551 5.81876 152.189 5.58479 152.827 5.42881C153.472 5.27283 154.125 5.19484 154.784 5.19484C155.578 5.19484 156.262 5.33664 156.837 5.62024C157.411 5.90384 157.854 6.36114 158.166 6.99215C158.478 7.61607 158.634 8.44206 158.634 9.47011V12.3416C158.634 12.8733 158.659 13.2597 158.708 13.5008C158.758 13.7347 158.85 13.8836 158.985 13.9474C159.12 14.0113 159.315 14.0432 159.57 14.0432H159.91L159.676 16.2127H158.719C158.322 16.2127 157.968 16.1595 157.656 16.0532C157.351 15.9539 157.088 15.8121 156.869 15.6278C156.649 15.4434 156.472 15.2272 156.337 14.979C155.989 15.369 155.518 15.6739 154.922 15.8936C154.334 16.1064 153.721 16.2127 153.083 16.2127ZM154.189 14.192C154.423 14.192 154.713 14.1318 155.061 14.0113C155.408 13.8836 155.72 13.6887 155.997 13.4263V11.0015C155.5 11.0228 155.004 11.1044 154.508 11.2462C154.011 11.388 153.597 11.5971 153.263 11.8736C152.93 12.1501 152.763 12.4975 152.763 12.9158C152.763 13.3483 152.877 13.6709 153.104 13.8836C153.331 14.0892 153.692 14.192 154.189 14.192ZM165.25 3.51451V1.7491H172.567V3.51451H165.25ZM165.675 16.2127C164.598 16.2127 163.69 15.961 162.953 15.4576C162.223 14.9542 161.67 14.2842 161.294 13.4476C160.925 12.611 160.741 11.6964 160.741 10.7038C160.741 9.71117 160.925 8.79656 161.294 7.95994C161.67 7.12332 162.223 6.45331 162.953 5.94992C163.69 5.44653 164.598 5.19484 165.675 5.19484C166.455 5.19484 167.115 5.326 167.653 5.58833C168.192 5.84357 168.667 6.17326 169.079 6.57739L168.44 7.13041V0.0474984H171.078V16H168.589L168.462 14.192L169.227 14.7451C168.731 15.1988 168.217 15.5569 167.685 15.8192C167.154 16.0815 166.484 16.2127 165.675 16.2127ZM166.058 14.0432C166.64 14.0432 167.115 13.9014 167.483 13.6178C167.852 13.3342 168.125 12.9442 168.302 12.4479C168.479 11.9445 168.568 11.3631 168.568 10.7038C168.568 10.0444 168.479 9.46656 168.302 8.97026C168.125 8.46687 167.852 8.07338 167.483 7.78978C167.115 7.50618 166.64 7.36438 166.058 7.36438C165.505 7.36438 165.034 7.50618 164.644 7.78978C164.254 8.07338 163.956 8.46687 163.75 8.97026C163.545 9.46656 163.442 10.0444 163.442 10.7038C163.442 11.3631 163.545 11.9445 163.75 12.4479C163.956 12.9442 164.254 13.3342 164.644 13.6178C165.034 13.9014 165.505 14.0432 166.058 14.0432ZM178.739 16.2127C177.456 16.2127 176.385 15.9575 175.528 15.447C174.677 14.9294 174.039 14.2488 173.613 13.4051C173.188 12.5543 172.975 11.6255 172.975 10.6187C172.975 9.64736 173.174 8.75047 173.571 7.92803C173.975 7.10559 174.563 6.44622 175.336 5.94992C176.109 5.44653 177.052 5.19484 178.165 5.19484C179.186 5.19484 180.037 5.40399 180.717 5.8223C181.398 6.24061 181.909 6.80072 182.249 7.50263C182.589 8.19745 182.759 8.96672 182.759 9.81043C182.759 10.0444 182.745 10.2819 182.717 10.523C182.688 10.7569 182.646 11.0015 182.589 11.2568H175.719C175.818 11.9162 176.024 12.4515 176.336 12.8627C176.655 13.2668 177.041 13.5646 177.495 13.756C177.956 13.9474 178.449 14.0432 178.973 14.0432C179.59 14.0432 180.164 13.9652 180.696 13.8092C181.228 13.6461 181.717 13.4334 182.164 13.1711L182.291 15.4044C181.887 15.6171 181.384 15.805 180.781 15.9681C180.179 16.1312 179.498 16.2127 178.739 16.2127ZM175.783 9.47011H180.079C180.079 9.15106 180.019 8.83201 179.899 8.51296C179.778 8.18682 179.576 7.91385 179.292 7.69406C179.016 7.47427 178.64 7.36438 178.165 7.36438C177.484 7.36438 176.949 7.5629 176.559 7.95994C176.169 8.35698 175.91 8.86037 175.783 9.47011ZM184.56 16V5.365H187.027L187.133 7.34311L186.517 6.53485C186.921 6.19453 187.403 5.88611 187.963 5.6096C188.523 5.33309 189.175 5.19484 189.92 5.19484C191.281 5.19484 192.291 5.6486 192.951 6.55612C193.61 7.45655 193.94 8.6264 193.94 10.0657V16H191.302V10.2784C191.302 9.28577 191.136 8.55195 190.803 8.07692C190.476 7.60189 189.941 7.36438 189.197 7.36438C188.594 7.36438 188.101 7.51327 187.718 7.81105C187.336 8.10174 186.999 8.49169 186.708 8.9809L187.197 7.68343V16H184.56ZM196.04 16V13.1073H198.806V16H196.04Z" fill="#5F2518"/>
</svg>
