<svg width="218" height="19" viewBox="0 0 218 19" fill="none" xmlns="http://www.w3.org/2000/svg">
<path d="M5.5156 18.3258C4.85628 18.3258 4.17758 18.2598 3.47948 18.128C2.78138 18.0039 2.13369 17.8526 1.53643 17.6742C0.939167 17.4881 0.46601 17.3097 0.11696 17.139L0.46601 13.9743C1.00898 14.238 1.57521 14.4824 2.16472 14.7073C2.75423 14.9322 3.35925 15.1145 3.97978 15.2541C4.60031 15.3938 5.2286 15.4636 5.86465 15.4636C6.65583 15.4636 7.29188 15.3084 7.77279 14.9982C8.2537 14.6879 8.49416 14.2147 8.49416 13.5787C8.49416 13.09 8.35842 12.6983 8.08694 12.4036C7.81545 12.1011 7.40047 11.8334 6.84199 11.6007C6.28351 11.3603 5.5699 11.0888 4.70115 10.7863C3.8324 10.4838 3.05286 10.1425 2.36252 9.76242C1.67217 9.37459 1.12533 8.88592 0.72198 8.29641C0.318633 7.7069 0.11696 6.95451 0.11696 6.03922C0.11696 5.13945 0.338025 4.34051 0.780155 3.64241C1.22229 2.93655 1.8816 2.38583 2.75811 1.99024C3.64237 1.58689 4.73993 1.38522 6.05081 1.38522C7.04366 1.38522 7.98998 1.49769 8.88975 1.72263C9.78952 1.93982 10.5574 2.1764 11.1935 2.43237L10.891 5.48074C9.97568 5.06964 9.11469 4.75937 8.308 4.54994C7.50906 4.33275 6.69461 4.22416 5.86465 4.22416C4.9959 4.22416 4.32495 4.36766 3.8518 4.65465C3.37864 4.94165 3.14206 5.37215 3.14206 5.94614C3.14206 6.40378 3.27392 6.77222 3.53765 7.05146C3.80138 7.3307 4.17758 7.57116 4.66625 7.77283C5.15492 7.96675 5.74054 8.1723 6.42313 8.38949C7.60214 8.76181 8.59112 9.17291 9.39006 9.6228C10.1967 10.0649 10.8018 10.604 11.2051 11.2401C11.6162 11.8684 11.8218 12.6479 11.8218 13.5787C11.8218 14.0441 11.7481 14.5522 11.6007 15.1029C11.4533 15.6459 11.1625 16.1617 10.7281 16.6503C10.2937 17.139 9.65766 17.5424 8.81994 17.8604C7.98998 18.1706 6.88853 18.3258 5.5156 18.3258ZM21.341 18.3258C19.7897 18.3258 18.409 17.9767 17.199 17.2786C15.9889 16.5728 15.0387 15.5877 14.3484 14.3233C13.658 13.0512 13.3129 11.562 13.3129 9.8555C13.3129 8.14903 13.658 6.66363 14.3484 5.39929C15.0387 4.1272 15.9889 3.1421 17.199 2.444C18.409 1.73815 19.7897 1.38522 21.341 1.38522C22.8924 1.38522 24.273 1.73815 25.4831 2.444C26.6931 3.1421 27.6433 4.1272 28.3337 5.39929C29.024 6.66363 29.3692 8.14903 29.3692 9.8555C29.3692 11.562 29.024 13.0512 28.3337 14.3233C27.6433 15.5877 26.6931 16.5728 25.4831 17.2786C24.273 17.9767 22.8924 18.3258 21.341 18.3258ZM21.341 15.4403C22.427 15.4403 23.3345 15.1998 24.0636 14.7189C24.7927 14.238 25.3396 13.5787 25.7041 12.741C26.0687 11.8955 26.251 10.9337 26.251 9.8555C26.251 8.77732 26.0687 7.81937 25.7041 6.98165C25.3396 6.13618 24.7927 5.47298 24.0636 4.99207C23.3345 4.51116 22.427 4.2707 21.341 4.2707C20.2551 4.2707 19.3476 4.51116 18.6184 4.99207C17.8893 5.47298 17.3425 6.13618 16.9779 6.98165C16.6133 7.81937 16.431 8.77732 16.431 9.8555C16.431 10.9337 16.6133 11.8955 16.9779 12.741C17.3425 13.5787 17.8893 14.238 18.6184 14.7189C19.3476 15.1998 20.2551 15.4403 21.341 15.4403ZM31.97 18V1.711H37.7642C39.013 1.711 40.0679 1.89716 40.9289 2.26948C41.7899 2.6418 42.4415 3.21579 42.8836 3.99146C43.3335 4.76713 43.5584 5.75998 43.5584 6.97002C43.5584 8.19557 43.3374 9.20782 42.8952 10.0068C42.4531 10.7979 41.8054 11.3874 40.9522 11.7753C40.0989 12.1554 39.0595 12.3454 37.834 12.3454H34.9485V18H31.97ZM34.9485 9.8555H37.4849C38.5011 9.8555 39.2612 9.62668 39.7654 9.16903C40.2773 8.71139 40.5333 7.9939 40.5333 7.01656C40.5333 6.03922 40.2735 5.32561 39.7538 4.87572C39.2418 4.42583 38.4623 4.20089 37.4151 4.20089H34.9485V9.8555ZM53.0689 18.3258C51.347 18.3258 49.8732 17.9767 48.6476 17.2786C47.4221 16.5728 46.4835 15.5838 45.832 14.3117C45.1804 13.0396 44.8546 11.5465 44.8546 9.83223C44.8546 8.13352 45.2153 6.652 45.9367 5.38766C46.6658 4.11557 47.6703 3.13047 48.9501 2.43237C50.23 1.73427 51.7038 1.38522 53.3714 1.38522C54.2324 1.38522 55.0546 1.47442 55.8381 1.65282C56.6292 1.83123 57.3041 2.06005 57.8626 2.33929L57.5368 5.17823C56.955 4.90675 56.3112 4.68568 55.6054 4.51503C54.9073 4.33663 54.1626 4.24743 53.3714 4.24743C52.1614 4.24743 51.1686 4.49176 50.3929 4.98043C49.6172 5.46135 49.0432 6.12066 48.6709 6.95838C48.2986 7.78835 48.1124 8.73078 48.1124 9.78569C48.1124 10.8949 48.2986 11.8761 48.6709 12.7293C49.051 13.5826 49.6172 14.2535 50.3696 14.7422C51.122 15.2231 52.0606 15.4636 53.1853 15.4636C53.5266 15.4636 53.8834 15.4403 54.2557 15.3938C54.6358 15.3472 55.0236 15.2852 55.4192 15.2076V12.2988H53.1853V9.83223H58.3978V17.0925C57.8315 17.426 57.0791 17.7169 56.1406 17.9651C55.2098 18.2056 54.1859 18.3258 53.0689 18.3258Z" fill="#FFB213"/>
<path d="M65.7435 18L68.0006 1.711H70.444L74.4232 9.13413L78.3791 1.711H80.8224L83.0796 18H79.9847L78.4256 5.75998L79.2401 5.92287L74.4232 14.5793L69.583 5.94614L70.3975 5.78325L68.8384 18H65.7435ZM87.8301 18.2327C87.2096 18.2327 86.6434 18.097 86.1314 17.8255C85.6195 17.5462 85.2123 17.1468 84.9098 16.6271C84.6072 16.1074 84.456 15.4791 84.456 14.7422C84.456 14.0829 84.6072 13.5205 84.9098 13.0551C85.22 12.582 85.6234 12.1903 86.1198 11.88C86.624 11.562 87.1669 11.3138 87.7487 11.1353C88.3382 10.9492 88.9161 10.8134 89.4823 10.7281C90.0563 10.6428 90.5605 10.5924 90.9949 10.5769C90.9638 9.9098 90.7932 9.425 90.4829 9.12249C90.1726 8.81998 89.6452 8.66873 88.9006 8.66873C88.3809 8.66873 87.8728 8.74242 87.3764 8.88979C86.8877 9.02941 86.3331 9.25048 85.7126 9.55299L85.4566 7.20272C86.1547 6.86143 86.8528 6.60546 87.5509 6.43481C88.2568 6.26416 88.9704 6.17884 89.6917 6.17884C90.5605 6.17884 91.309 6.33397 91.9373 6.64424C92.5656 6.95451 93.0504 7.45481 93.3917 8.14515C93.733 8.82774 93.9036 9.73139 93.9036 10.8561V13.9976C93.9036 14.5793 93.9308 15.002 93.9851 15.2658C94.0393 15.5217 94.1402 15.6846 94.2876 15.7544C94.4349 15.8243 94.6482 15.8592 94.9275 15.8592H95.2998L95.0438 18.2327H93.9967C93.5623 18.2327 93.1745 18.1745 92.8332 18.0582C92.4996 17.9496 92.2127 17.7944 91.9722 17.5928C91.7317 17.3911 91.5378 17.1545 91.3904 16.883C91.0104 17.3097 90.4946 17.6432 89.843 17.8836C89.1992 18.1164 88.5282 18.2327 87.8301 18.2327ZM89.0402 16.022C89.2961 16.022 89.6142 15.9561 89.9942 15.8243C90.3743 15.6846 90.7156 15.4713 91.0181 15.1843V12.5315C90.4752 12.5548 89.9322 12.644 89.3892 12.7992C88.8463 12.9543 88.3925 13.1831 88.0279 13.4856C87.6634 13.7881 87.4811 14.1682 87.4811 14.6258C87.4811 15.099 87.6052 15.4519 87.8534 15.6846C88.1016 15.9096 88.4972 16.022 89.0402 16.022ZM96.9065 18V6.365H99.6058L99.6757 7.59831C99.9704 7.27253 100.385 6.94675 100.921 6.62097C101.456 6.29519 102.041 6.1323 102.677 6.1323C102.864 6.1323 103.034 6.14781 103.189 6.17884L102.98 9.01778C102.809 8.97124 102.639 8.94021 102.468 8.9247C102.305 8.90919 102.142 8.90143 101.979 8.90143C101.491 8.90143 101.045 9.0139 100.641 9.23884C100.238 9.46379 99.9549 9.73915 99.792 10.0649V18H96.9065ZM104.587 18V6.365H107.473V18H104.587ZM104.587 4.59648V1.711H107.473V4.59648H104.587ZM110.178 18V6.365H112.877L112.993 8.52911L112.319 7.64485C112.761 7.27253 113.288 6.93511 113.901 6.6326C114.514 6.33009 115.227 6.17884 116.042 6.17884C117.531 6.17884 118.636 6.67527 119.358 7.66812C120.079 8.65322 120.44 9.93307 120.44 11.5077V18H117.554V11.7404C117.554 10.6544 117.372 9.85162 117.007 9.33192C116.651 8.81223 116.065 8.55238 115.251 8.55238C114.591 8.55238 114.052 8.71527 113.633 9.04105C113.214 9.35907 112.846 9.78569 112.528 10.3209L113.063 8.90143V18H110.178ZM125.53 18.2327C124.91 18.2327 124.343 18.097 123.832 17.8255C123.32 17.5462 122.912 17.1468 122.61 16.6271C122.307 16.1074 122.156 15.4791 122.156 14.7422C122.156 14.0829 122.307 13.5205 122.61 13.0551C122.92 12.582 123.323 12.1903 123.82 11.88C124.324 11.562 124.867 11.3138 125.449 11.1353C126.038 10.9492 126.616 10.8134 127.182 10.7281C127.756 10.6428 128.261 10.5924 128.695 10.5769C128.664 9.9098 128.493 9.425 128.183 9.12249C127.873 8.81998 127.345 8.66873 126.601 8.66873C126.081 8.66873 125.573 8.74242 125.076 8.88979C124.588 9.02941 124.033 9.25048 123.413 9.55299L123.157 7.20272C123.855 6.86143 124.553 6.60546 125.251 6.43481C125.957 6.26416 126.67 6.17884 127.392 6.17884C128.261 6.17884 129.009 6.33397 129.637 6.64424C130.266 6.95451 130.75 7.45481 131.092 8.14515C131.433 8.82774 131.604 9.73139 131.604 10.8561V13.9976C131.604 14.5793 131.631 15.002 131.685 15.2658C131.739 15.5217 131.84 15.6846 131.988 15.7544C132.135 15.8243 132.348 15.8592 132.628 15.8592H133L132.744 18.2327H131.697C131.262 18.2327 130.875 18.1745 130.533 18.0582C130.2 17.9496 129.913 17.7944 129.672 17.5928C129.432 17.3911 129.238 17.1545 129.091 16.883C128.71 17.3097 128.195 17.6432 127.543 17.8836C126.899 18.1164 126.228 18.2327 125.53 18.2327ZM126.74 16.022C126.996 16.022 127.314 15.9561 127.694 15.8243C128.074 15.6846 128.416 15.4713 128.718 15.1843V12.5315C128.175 12.5548 127.632 12.644 127.089 12.7992C126.546 12.9543 126.093 13.1831 125.728 13.4856C125.363 13.7881 125.181 14.1682 125.181 14.6258C125.181 15.099 125.305 15.4519 125.554 15.6846C125.802 15.9096 126.197 16.022 126.74 16.022ZM139.508 18L141.765 1.711H144.208L148.187 9.13413L152.143 1.711H154.586L156.844 18H153.749L152.19 5.75998L153.004 5.92287L148.187 14.5793L143.347 5.94614L144.162 5.78325L142.602 18H139.508ZM161.923 18.2327C161.233 18.2327 160.667 18.097 160.225 17.8255C159.79 17.5462 159.468 17.1778 159.259 16.7201C159.049 16.2547 158.945 15.7428 158.945 15.1843V0.547498H161.83V13.9976C161.83 14.6181 161.865 15.0602 161.935 15.3239C162.012 15.5799 162.152 15.7351 162.354 15.7893C162.555 15.8359 162.846 15.8592 163.226 15.8592L162.97 18.2327H161.923ZM167.571 18.2327C166.95 18.2327 166.384 18.097 165.872 17.8255C165.36 17.5462 164.953 17.1468 164.65 16.6271C164.348 16.1074 164.197 15.4791 164.197 14.7422C164.197 14.0829 164.348 13.5205 164.65 13.0551C164.961 12.582 165.364 12.1903 165.86 11.88C166.365 11.562 166.908 11.3138 167.489 11.1353C168.079 10.9492 168.657 10.8134 169.223 10.7281C169.797 10.6428 170.301 10.5924 170.736 10.5769C170.704 9.9098 170.534 9.425 170.224 9.12249C169.913 8.81998 169.386 8.66873 168.641 8.66873C168.122 8.66873 167.613 8.74242 167.117 8.88979C166.628 9.02941 166.074 9.25048 165.453 9.55299L165.197 7.20272C165.895 6.86143 166.593 6.60546 167.292 6.43481C167.997 6.26416 168.711 6.17884 169.432 6.17884C170.301 6.17884 171.05 6.33397 171.678 6.64424C172.306 6.95451 172.791 7.45481 173.132 8.14515C173.474 8.82774 173.644 9.73139 173.644 10.8561V13.9976C173.644 14.5793 173.671 15.002 173.726 15.2658C173.78 15.5217 173.881 15.6846 174.028 15.7544C174.176 15.8243 174.389 15.8592 174.668 15.8592H175.04L174.784 18.2327H173.737C173.303 18.2327 172.915 18.1745 172.574 18.0582C172.24 17.9496 171.953 17.7944 171.713 17.5928C171.472 17.3911 171.278 17.1545 171.131 16.883C170.751 17.3097 170.235 17.6432 169.584 17.8836C168.94 18.1164 168.269 18.2327 167.571 18.2327ZM168.781 16.022C169.037 16.022 169.355 15.9561 169.735 15.8243C170.115 15.6846 170.456 15.4713 170.759 15.1843V12.5315C170.216 12.5548 169.673 12.644 169.13 12.7992C168.587 12.9543 168.133 13.1831 167.769 13.4856C167.404 13.7881 167.222 14.1682 167.222 14.6258C167.222 15.099 167.346 15.4519 167.594 15.6846C167.842 15.9096 168.238 16.022 168.781 16.022ZM180.882 4.34051V2.4091H188.887V4.34051H180.882ZM181.348 18.2327C180.169 18.2327 179.176 17.9573 178.369 17.4066C177.57 16.8559 176.965 16.1229 176.554 15.2076C176.151 14.2923 175.949 13.2917 175.949 12.2058C175.949 11.1198 176.151 10.1192 176.554 9.20394C176.965 8.28865 177.57 7.55565 178.369 7.00492C179.176 6.4542 180.169 6.17884 181.348 6.17884C182.201 6.17884 182.922 6.32234 183.512 6.60933C184.101 6.88857 184.621 7.24926 185.071 7.69139L184.373 8.29641V0.547498H187.258V18H184.536L184.396 16.022L185.234 16.6271C184.691 17.1235 184.128 17.5152 183.547 17.8022C182.965 18.0892 182.232 18.2327 181.348 18.2327ZM181.767 15.8592C182.403 15.8592 182.922 15.704 183.326 15.3938C183.729 15.0835 184.028 14.6569 184.222 14.1139C184.415 13.5632 184.512 12.9271 184.512 12.2058C184.512 11.4844 184.415 10.8522 184.222 10.3093C184.028 9.75854 183.729 9.32805 183.326 9.01778C182.922 8.70751 182.403 8.55238 181.767 8.55238C181.162 8.55238 180.646 8.70751 180.219 9.01778C179.793 9.32805 179.467 9.75854 179.242 10.3093C179.017 10.8522 178.904 11.4844 178.904 12.2058C178.904 12.9271 179.017 13.5632 179.242 14.1139C179.467 14.6569 179.793 15.0835 180.219 15.3938C180.646 15.704 181.162 15.8592 181.767 15.8592ZM195.64 18.2327C194.236 18.2327 193.065 17.9535 192.126 17.395C191.195 16.8287 190.497 16.0841 190.032 15.1611C189.567 14.2303 189.334 13.2141 189.334 12.1127C189.334 11.05 189.551 10.0688 189.985 9.16903C190.428 8.26926 191.071 7.54789 191.917 7.00492C192.762 6.4542 193.794 6.17884 195.012 6.17884C196.129 6.17884 197.06 6.40766 197.804 6.8653C198.549 7.32295 199.107 7.93572 199.48 8.70363C199.852 9.46379 200.038 10.3054 200.038 11.2284C200.038 11.4844 200.023 11.7442 199.992 12.008C199.961 12.2639 199.914 12.5315 199.852 12.8108H192.336C192.444 13.5322 192.669 14.1178 193.011 14.5677C193.36 15.0098 193.782 15.3356 194.279 15.545C194.783 15.7544 195.322 15.8592 195.896 15.8592C196.571 15.8592 197.199 15.7738 197.781 15.6032C198.363 15.4248 198.898 15.1921 199.387 14.9051L199.526 17.3484C199.084 17.5811 198.533 17.7867 197.874 17.9651C197.215 18.1435 196.47 18.2327 195.64 18.2327ZM192.406 10.8561H197.106C197.106 10.5071 197.04 10.158 196.908 9.80896C196.776 9.45215 196.555 9.15352 196.245 8.91306C195.943 8.67261 195.531 8.55238 195.012 8.55238C194.267 8.55238 193.681 8.76957 193.255 9.20394C192.828 9.63831 192.545 10.189 192.406 10.8561ZM202.008 18V6.365H204.707L204.824 8.52911L204.149 7.64485C204.591 7.27253 205.118 6.93511 205.731 6.6326C206.344 6.33009 207.057 6.17884 207.872 6.17884C209.361 6.17884 210.466 6.67527 211.188 7.66812C211.909 8.65322 212.27 9.93307 212.27 11.5077V18H209.384V11.7404C209.384 10.6544 209.202 9.85162 208.838 9.33192C208.481 8.81223 207.895 8.55238 207.081 8.55238C206.421 8.55238 205.882 8.71527 205.463 9.04105C205.045 9.35907 204.676 9.78569 204.358 10.3209L204.893 8.90143V18H202.008ZM214.568 18V14.8353H217.593V18H214.568Z" fill="white"/>
</svg>
