<svg width="181" height="24" viewBox="0 0 181 24" fill="none" xmlns="http://www.w3.org/2000/svg">
<path d="M6.84 23.392C6.04667 23.392 5.23 23.3127 4.39 23.154C3.55 23.0047 2.77067 22.8227 2.052 22.608C1.33333 22.384 0.764 22.1693 0.344 21.964L0.764 18.156C1.41733 18.4733 2.09867 18.7673 2.808 19.038C3.51733 19.3087 4.24533 19.528 4.992 19.696C5.73867 19.864 6.49467 19.948 7.26 19.948C8.212 19.948 8.97733 19.7613 9.556 19.388C10.1347 19.0147 10.424 18.4453 10.424 17.68C10.424 17.092 10.2607 16.6207 9.934 16.266C9.60733 15.902 9.108 15.58 8.436 15.3C7.764 15.0107 6.90533 14.684 5.86 14.32C4.81467 13.956 3.87667 13.5453 3.046 13.088C2.21533 12.6213 1.55733 12.0333 1.072 11.324C0.586667 10.6147 0.344 9.70933 0.344 8.608C0.344 7.52533 0.61 6.564 1.142 5.724C1.674 4.87467 2.46733 4.212 3.522 3.736C4.586 3.25067 5.90667 3.008 7.484 3.008C8.67867 3.008 9.81733 3.14333 10.9 3.414C11.9827 3.67533 12.9067 3.96 13.672 4.268L13.308 7.936C12.2067 7.44133 11.1707 7.068 10.2 6.816C9.23867 6.55467 8.25867 6.424 7.26 6.424C6.21467 6.424 5.40733 6.59667 4.838 6.942C4.26867 7.28733 3.984 7.80533 3.984 8.496C3.984 9.04667 4.14267 9.49 4.46 9.826C4.77733 10.162 5.23 10.4513 5.818 10.694C6.406 10.9273 7.11067 11.1747 7.932 11.436C9.35067 11.884 10.5407 12.3787 11.502 12.92C12.4727 13.452 13.2007 14.1007 13.686 14.866C14.1807 15.622 14.428 16.56 14.428 17.68C14.428 18.24 14.3393 18.8513 14.162 19.514C13.9847 20.1673 13.6347 20.788 13.112 21.376C12.5893 21.964 11.824 22.4493 10.816 22.832C9.81733 23.2053 8.492 23.392 6.84 23.392ZM25.8822 23.392C24.0155 23.392 22.3542 22.972 20.8982 22.132C19.4422 21.2827 18.2989 20.0973 17.4682 18.576C16.6375 17.0453 16.2222 15.2533 16.2222 13.2C16.2222 11.1467 16.6375 9.35933 17.4682 7.838C18.2989 6.30733 19.4422 5.122 20.8982 4.282C22.3542 3.43267 24.0155 3.008 25.8822 3.008C27.7489 3.008 29.4102 3.43267 30.8662 4.282C32.3222 5.122 33.4655 6.30733 34.2962 7.838C35.1269 9.35933 35.5422 11.1467 35.5422 13.2C35.5422 15.2533 35.1269 17.0453 34.2962 18.576C33.4655 20.0973 32.3222 21.2827 30.8662 22.132C29.4102 22.972 27.7489 23.392 25.8822 23.392ZM25.8822 19.92C27.1889 19.92 28.2809 19.6307 29.1582 19.052C30.0355 18.4733 30.6935 17.68 31.1322 16.672C31.5709 15.6547 31.7902 14.4973 31.7902 13.2C31.7902 11.9027 31.5709 10.75 31.1322 9.742C30.6935 8.72467 30.0355 7.92667 29.1582 7.348C28.2809 6.76933 27.1889 6.48 25.8822 6.48C24.5755 6.48 23.4835 6.76933 22.6062 7.348C21.7289 7.92667 21.0709 8.72467 20.6322 9.742C20.1935 10.75 19.9742 11.9027 19.9742 13.2C19.9742 14.4973 20.1935 15.6547 20.6322 16.672C21.0709 17.68 21.7289 18.4733 22.6062 19.052C23.4835 19.6307 24.5755 19.92 25.8822 19.92ZM38.6716 23V3.4H45.6436C47.1463 3.4 48.4156 3.624 49.4516 4.072C50.4876 4.52 51.2716 5.21067 51.8036 6.144C52.345 7.07733 52.6156 8.272 52.6156 9.728C52.6156 11.2027 52.3496 12.4207 51.8176 13.382C51.2856 14.334 50.5063 15.0433 49.4796 15.51C48.453 15.9673 47.2023 16.196 45.7276 16.196H42.2556V23H38.6716ZM42.2556 13.2H45.3076C46.5303 13.2 47.445 12.9247 48.0516 12.374C48.6676 11.8233 48.9756 10.96 48.9756 9.784C48.9756 8.608 48.663 7.74933 48.0376 7.208C47.4216 6.66667 46.4836 6.396 45.2236 6.396H42.2556V13.2ZM64.0593 23.392C61.9873 23.392 60.214 22.972 58.7393 22.132C57.2646 21.2827 56.1353 20.0927 55.3513 18.562C54.5673 17.0313 54.1753 15.2347 54.1753 13.172C54.1753 11.128 54.6093 9.34533 55.4773 7.824C56.3546 6.29333 57.5633 5.108 59.1033 4.268C60.6433 3.428 62.4166 3.008 64.4233 3.008C65.4593 3.008 66.4486 3.11533 67.3913 3.33C68.3433 3.54467 69.1553 3.82 69.8273 4.156L69.4353 7.572C68.7353 7.24533 67.9606 6.97933 67.1113 6.774C66.2713 6.55933 65.3753 6.452 64.4233 6.452C62.9673 6.452 61.7726 6.746 60.8393 7.334C59.906 7.91267 59.2153 8.706 58.7673 9.714C58.3193 10.7127 58.0953 11.8467 58.0953 13.116C58.0953 14.4507 58.3193 15.6313 58.7673 16.658C59.2246 17.6847 59.906 18.492 60.8113 19.08C61.7166 19.6587 62.846 19.948 64.1993 19.948C64.61 19.948 65.0393 19.92 65.4873 19.864C65.9446 19.808 66.4113 19.7333 66.8873 19.64V16.14H64.1993V13.172H70.4713V21.908C69.79 22.3093 68.8846 22.6593 67.7553 22.958C66.6353 23.2473 65.4033 23.392 64.0593 23.392ZM176.616 23V18.92H180.516V23H176.616Z" fill="#FFB213"/>
<path d="M79.8473 23L82.7573 2H85.9073L91.0373 11.57L96.1373 2H99.2873L102.197 23H98.2073L96.1973 7.22L97.2473 7.43L91.0373 18.59L84.7973 7.46L85.8473 7.25L83.8373 23H79.8473ZM108.746 23.3C107.856 23.3 107.126 23.125 106.556 22.775C105.996 22.415 105.581 21.94 105.311 21.35C105.041 20.75 104.906 20.09 104.906 19.37V0.499998H108.626V17.84C108.626 18.64 108.671 19.21 108.761 19.55C108.861 19.88 109.041 20.08 109.301 20.15C109.561 20.21 109.936 20.24 110.426 20.24L110.096 23.3H108.746ZM116.027 23.3C115.227 23.3 114.497 23.125 113.837 22.775C113.177 22.415 112.652 21.9 112.262 21.23C111.872 20.56 111.677 19.75 111.677 18.8C111.677 17.95 111.872 17.225 112.262 16.625C112.662 16.015 113.182 15.51 113.822 15.11C114.472 14.7 115.172 14.38 115.922 14.15C116.682 13.91 117.427 13.735 118.157 13.625C118.897 13.515 119.547 13.45 120.107 13.43C120.067 12.57 119.847 11.945 119.447 11.555C119.047 11.165 118.367 10.97 117.407 10.97C116.737 10.97 116.082 11.065 115.442 11.255C114.812 11.435 114.097 11.72 113.297 12.11L112.967 9.08C113.867 8.64 114.767 8.31 115.667 8.09C116.577 7.87 117.497 7.76 118.427 7.76C119.547 7.76 120.512 7.96 121.322 8.36C122.132 8.76 122.757 9.405 123.197 10.295C123.637 11.175 123.857 12.34 123.857 13.79V17.84C123.857 18.59 123.892 19.135 123.962 19.475C124.032 19.805 124.162 20.015 124.352 20.105C124.542 20.195 124.817 20.24 125.177 20.24H125.657L125.327 23.3H123.977C123.417 23.3 122.917 23.225 122.477 23.075C122.047 22.935 121.677 22.735 121.367 22.475C121.057 22.215 120.807 21.91 120.617 21.56C120.127 22.11 119.462 22.54 118.622 22.85C117.792 23.15 116.927 23.3 116.027 23.3ZM117.587 20.45C117.917 20.45 118.327 20.365 118.817 20.195C119.307 20.015 119.747 19.74 120.137 19.37V15.95C119.437 15.98 118.737 16.095 118.037 16.295C117.337 16.495 116.752 16.79 116.282 17.18C115.812 17.57 115.577 18.06 115.577 18.65C115.577 19.26 115.737 19.715 116.057 20.015C116.377 20.305 116.887 20.45 117.587 20.45ZM133.188 5.39V2.9H143.508V5.39H133.188ZM133.788 23.3C132.268 23.3 130.988 22.945 129.948 22.235C128.918 21.525 128.138 20.58 127.608 19.4C127.088 18.22 126.828 16.93 126.828 15.53C126.828 14.13 127.088 12.84 127.608 11.66C128.138 10.48 128.918 9.535 129.948 8.825C130.988 8.115 132.268 7.76 133.788 7.76C134.888 7.76 135.818 7.945 136.578 8.315C137.338 8.675 138.008 9.14 138.588 9.71L137.688 10.49V0.499998H141.408V23H137.898L137.718 20.45L138.798 21.23C138.098 21.87 137.373 22.375 136.623 22.745C135.873 23.115 134.928 23.3 133.788 23.3ZM134.328 20.24C135.148 20.24 135.818 20.04 136.338 19.64C136.858 19.24 137.243 18.69 137.493 17.99C137.743 17.28 137.868 16.46 137.868 15.53C137.868 14.6 137.743 13.785 137.493 13.085C137.243 12.375 136.858 11.82 136.338 11.42C135.818 11.02 135.148 10.82 134.328 10.82C133.548 10.82 132.883 11.02 132.333 11.42C131.783 11.82 131.363 12.375 131.073 13.085C130.783 13.785 130.638 14.6 130.638 15.53C130.638 16.46 130.783 17.28 131.073 17.99C131.363 18.69 131.783 19.24 132.333 19.64C132.883 20.04 133.548 20.24 134.328 20.24ZM152.214 23.3C150.404 23.3 148.894 22.94 147.684 22.22C146.484 21.49 145.584 20.53 144.984 19.34C144.384 18.14 144.084 16.83 144.084 15.41C144.084 14.04 144.364 12.775 144.924 11.615C145.494 10.455 146.324 9.525 147.414 8.825C148.504 8.115 149.834 7.76 151.404 7.76C152.844 7.76 154.044 8.055 155.004 8.645C155.964 9.235 156.684 10.025 157.164 11.015C157.644 11.995 157.884 13.08 157.884 14.27C157.884 14.6 157.864 14.935 157.824 15.275C157.784 15.605 157.724 15.95 157.644 16.31H147.954C148.094 17.24 148.384 17.995 148.824 18.575C149.274 19.145 149.819 19.565 150.459 19.835C151.109 20.105 151.804 20.24 152.544 20.24C153.414 20.24 154.224 20.13 154.974 19.91C155.724 19.68 156.414 19.38 157.044 19.01L157.224 22.16C156.654 22.46 155.944 22.725 155.094 22.955C154.244 23.185 153.284 23.3 152.214 23.3ZM148.044 13.79H154.104C154.104 13.34 154.019 12.89 153.849 12.44C153.679 11.98 153.394 11.595 152.994 11.285C152.604 10.975 152.074 10.82 151.404 10.82C150.444 10.82 149.689 11.1 149.139 11.66C148.589 12.22 148.224 12.93 148.044 13.79ZM160.424 23V8H163.904L164.054 10.79L163.184 9.65C163.754 9.17 164.434 8.735 165.224 8.345C166.014 7.955 166.934 7.76 167.984 7.76C169.904 7.76 171.329 8.4 172.259 9.68C173.189 10.95 173.654 12.6 173.654 14.63V23H169.934V14.93C169.934 13.53 169.699 12.495 169.229 11.825C168.769 11.155 168.014 10.82 166.964 10.82C166.114 10.82 165.419 11.03 164.879 11.45C164.339 11.86 163.864 12.41 163.454 13.1L164.144 11.27V23H160.424Z" fill="white"/>
</svg>
