<svg width="145" height="34" viewBox="0 0 145 34" fill="none" xmlns="http://www.w3.org/2000/svg">
<path d="M39.089 3.972V4.792C38.5423 4.92867 37.9547 5.29767 37.326 5.899C36.6973 6.473 36.1643 7.44333 35.727 8.81L28.183 33.164C28.0737 33.164 27.9507 33.164 27.814 33.164C27.7047 33.164 27.5953 33.164 27.486 33.164C27.3493 33.164 27.2263 33.164 27.117 33.164C27.0077 33.164 26.8983 33.164 26.789 33.164L18.097 7.293C17.769 6.28167 17.3863 5.62567 16.949 5.325C16.539 4.997 16.1427 4.81933 15.76 4.792V3.972C16.334 3.99933 17.0447 4.02667 17.892 4.054C18.7393 4.08133 19.5593 4.095 20.352 4.095C21.4727 4.095 22.5113 4.08133 23.468 4.054C24.452 4.02667 25.231 3.99933 25.805 3.972V4.792C24.985 4.81933 24.329 4.915 23.837 5.079C23.3723 5.21566 23.099 5.51633 23.017 5.981C22.9623 6.44567 23.099 7.19733 23.427 8.236L29.454 26.768L28.757 27.67L33.923 11.393C34.4697 9.69833 34.7157 8.38633 34.661 7.457C34.6337 6.50033 34.3193 5.83066 33.718 5.448C33.144 5.038 32.2967 4.81933 31.176 4.792V3.972C31.996 3.99933 32.816 4.02667 33.636 4.054C34.456 4.08133 35.2487 4.095 36.014 4.095C36.6973 4.095 37.2713 4.08133 37.736 4.054C38.228 4.02667 38.679 3.99933 39.089 3.972ZM10.225 3.972V4.792C9.569 4.84667 9.10433 5.01066 8.831 5.284C8.55767 5.53 8.421 5.899 8.421 6.391C8.44833 6.85567 8.585 7.47067 8.831 8.236L15.186 27.219L14.12 28.408L19.696 11.065L20.311 12.09L13.628 33.164C13.5187 33.164 13.4093 33.164 13.3 33.164C13.1907 33.164 13.0677 33.164 12.931 33.164C12.8217 33.164 12.6987 33.164 12.562 33.164C12.4527 33.164 12.3433 33.164 12.234 33.164L3.378 7.416C3.02267 6.37733 2.58533 5.694 2.066 5.366C1.54667 5.01067 1.06833 4.81933 0.631 4.792V3.972C1.287 3.99933 2.066 4.02667 2.968 4.054C3.87 4.08133 4.74467 4.095 5.592 4.095C6.576 4.095 7.46433 4.08133 8.257 4.054C9.077 4.02667 9.733 3.99933 10.225 3.972Z" fill="#FCDA51"/>
<path d="M47.3893 11.27C49.7946 11.27 51.6806 11.9943 53.0473 13.443C54.4139 14.8917 55.0973 17.1877 55.0973 20.331H40.9523L40.8703 19.552H50.7513C50.7786 18.2127 50.6693 16.9827 50.4233 15.862C50.1773 14.714 49.7946 13.7983 49.2753 13.115C48.7559 12.4317 48.0726 12.09 47.2253 12.09C46.0499 12.09 45.0249 12.7187 44.1503 13.976C43.3029 15.206 42.7836 17.1877 42.5923 19.921L42.7153 20.126C42.6879 20.5087 42.6606 20.9323 42.6333 21.397C42.6059 21.8343 42.5923 22.2717 42.5923 22.709C42.5923 24.595 42.8793 26.1803 43.4533 27.465C44.0273 28.7497 44.7789 29.72 45.7083 30.376C46.6376 31.0047 47.5806 31.319 48.5373 31.319C49.2753 31.319 49.9859 31.2097 50.6693 30.991C51.3799 30.745 52.0496 30.3487 52.6783 29.802C53.3069 29.228 53.8673 28.449 54.3593 27.465L55.1793 27.793C54.8513 28.7223 54.3456 29.638 53.6623 30.54C52.9789 31.442 52.1043 32.18 51.0383 32.754C49.9723 33.3007 48.7286 33.574 47.3073 33.574C45.3939 33.574 43.7266 33.1503 42.3053 32.303C40.8839 31.4283 39.7906 30.1847 39.0253 28.572C38.2599 26.9593 37.8773 25.046 37.8773 22.832C37.8773 20.3993 38.2736 18.322 39.0663 16.6C39.8589 14.878 40.9659 13.566 42.3873 12.664C43.8359 11.7347 45.5033 11.27 47.3893 11.27ZM70.7545 11.27C72.9411 11.27 74.7588 12.1857 76.2075 14.017C77.6835 15.821 78.4215 18.568 78.4215 22.258C78.4215 24.8547 77.9978 26.9867 77.1505 28.654C76.3031 30.3213 75.1688 31.565 73.7475 32.385C72.3535 33.1777 70.8365 33.574 69.1965 33.574C67.9118 33.574 66.6818 33.2597 65.5065 32.631C64.3311 31.975 63.4291 30.991 62.8005 29.679L63.5385 29.884C64.1398 30.8133 64.8915 31.5103 65.7935 31.975C66.6955 32.4397 67.6111 32.672 68.5405 32.672C70.2625 32.672 71.5471 31.8383 72.3945 30.171C73.2691 28.5037 73.7065 25.9343 73.7065 22.463C73.7065 20.1943 73.5288 18.3357 73.1735 16.887C72.8455 15.4383 72.3398 14.386 71.6565 13.73C71.0005 13.0467 70.1668 12.705 69.1555 12.705C67.9801 12.705 66.9005 13.2107 65.9165 14.222C64.9325 15.2333 64.3448 16.6957 64.1535 18.609L63.7435 17.748C64.1261 15.698 64.9461 14.1127 66.2035 12.992C67.4881 11.844 69.0051 11.27 70.7545 11.27ZM64.3995 0.896998V31.319C63.9348 31.483 63.4565 31.688 62.9645 31.934C62.4725 32.18 62.0078 32.4533 61.5705 32.754C61.1331 33.0273 60.7231 33.328 60.3405 33.656L59.6845 33.328C59.7938 32.9453 59.8621 32.5627 59.8895 32.18C59.9441 31.7973 59.9715 31.401 59.9715 30.991V5.817C59.9715 4.587 59.7528 3.685 59.3155 3.111C58.9055 2.50966 58.1401 2.209 57.0195 2.209V1.348C57.8941 1.43 58.7415 1.471 59.5615 1.471C60.4635 1.471 61.3245 1.43 62.1445 1.348C62.9645 1.23867 63.7161 1.08833 64.3995 0.896998ZM86.2643 1.512C87.1116 1.512 87.8223 1.78533 88.3963 2.332C88.9703 2.85133 89.2573 3.50733 89.2573 4.3C89.2573 5.09267 88.9703 5.76233 88.3963 6.309C87.8223 6.82833 87.1116 7.088 86.2643 7.088C85.417 7.088 84.7063 6.82833 84.1323 6.309C83.5583 5.76233 83.2713 5.09267 83.2713 4.3C83.2713 3.50733 83.5583 2.85133 84.1323 2.332C84.7063 1.78533 85.417 1.512 86.2643 1.512ZM88.7243 11.393V29.187C88.7243 30.335 88.943 31.114 89.3803 31.524C89.845 31.934 90.6103 32.139 91.6763 32.139V33C91.2116 32.9727 90.4873 32.9453 89.5033 32.918C88.5466 32.8633 87.5626 32.836 86.5513 32.836C85.5946 32.836 84.6106 32.8633 83.5993 32.918C82.588 32.9453 81.8363 32.9727 81.3443 33V32.139C82.4103 32.139 83.162 31.934 83.5993 31.524C84.064 31.114 84.2963 30.335 84.2963 29.187V16.313C84.2963 15.083 84.0913 14.181 83.6813 13.607C83.2713 13.0057 82.4923 12.705 81.3443 12.705V11.844C82.219 11.926 83.0663 11.967 83.8863 11.967C84.8156 11.967 85.6766 11.926 86.4693 11.844C87.2893 11.7347 88.041 11.5843 88.7243 11.393ZM101.262 11.27C102.356 11.27 103.299 11.4477 104.091 11.803C104.911 12.131 105.499 12.4317 105.854 12.705C106.756 13.4157 107.317 12.951 107.535 11.311H108.437C108.383 12.0763 108.342 13.0057 108.314 14.099C108.287 15.165 108.273 16.5863 108.273 18.363H107.371C107.207 17.3517 106.92 16.3677 106.51 15.411C106.128 14.4543 105.554 13.6617 104.788 13.033C104.05 12.4043 103.08 12.09 101.877 12.09C100.975 12.09 100.224 12.3497 99.6223 12.869C99.021 13.361 98.7203 14.099 98.7203 15.083C98.7203 15.903 98.9663 16.6137 99.4583 17.215C99.9503 17.8163 100.579 18.3767 101.344 18.896C102.137 19.4153 102.984 19.9757 103.886 20.577C104.898 21.2603 105.8 21.9437 106.592 22.627C107.412 23.283 108.055 24.021 108.519 24.841C109.011 25.661 109.257 26.6177 109.257 27.711C109.257 28.9683 108.916 30.0343 108.232 30.909C107.576 31.7837 106.702 32.4533 105.608 32.918C104.515 33.3553 103.312 33.574 102 33.574C101.344 33.574 100.729 33.5057 100.155 33.369C99.5813 33.2597 99.0483 33.1093 98.5563 32.918C98.2556 32.754 97.955 32.59 97.6543 32.426C97.381 32.2347 97.1076 32.057 96.8343 31.893C96.561 31.7017 96.315 31.729 96.0963 31.975C95.8776 32.221 95.7136 32.6583 95.6043 33.287H94.7023C94.757 32.4123 94.798 31.3463 94.8253 30.089C94.8526 28.8317 94.8663 27.1643 94.8663 25.087H95.7683C95.9596 26.5903 96.2466 27.916 96.6293 29.064C97.012 30.212 97.5723 31.114 98.3103 31.77C99.0756 32.3987 100.114 32.713 101.426 32.713C101.946 32.713 102.465 32.6037 102.984 32.385C103.504 32.139 103.927 31.7563 104.255 31.237C104.611 30.7177 104.788 30.0207 104.788 29.146C104.788 27.9433 104.365 26.9593 103.517 26.194C102.697 25.4013 101.631 24.5677 100.319 23.693C99.39 23.037 98.5016 22.3947 97.6543 21.766C96.8343 21.11 96.1646 20.3857 95.6453 19.593C95.126 18.773 94.8663 17.8027 94.8663 16.682C94.8663 15.452 95.1533 14.4407 95.7273 13.648C96.3286 12.8553 97.1213 12.2677 98.1053 11.885C99.0893 11.475 100.142 11.27 101.262 11.27ZM119.8 11.27C120.894 11.27 121.837 11.4477 122.629 11.803C123.449 12.131 124.037 12.4317 124.392 12.705C125.294 13.4157 125.855 12.951 126.073 11.311H126.975C126.921 12.0763 126.88 13.0057 126.852 14.099C126.825 15.165 126.811 16.5863 126.811 18.363H125.909C125.745 17.3517 125.458 16.3677 125.048 15.411C124.666 14.4543 124.092 13.6617 123.326 13.033C122.588 12.4043 121.618 12.09 120.415 12.09C119.513 12.09 118.762 12.3497 118.16 12.869C117.559 13.361 117.258 14.099 117.258 15.083C117.258 15.903 117.504 16.6137 117.996 17.215C118.488 17.8163 119.117 18.3767 119.882 18.896C120.675 19.4153 121.522 19.9757 122.424 20.577C123.436 21.2603 124.338 21.9437 125.13 22.627C125.95 23.283 126.593 24.021 127.057 24.841C127.549 25.661 127.795 26.6177 127.795 27.711C127.795 28.9683 127.454 30.0343 126.77 30.909C126.114 31.7837 125.24 32.4533 124.146 32.918C123.053 33.3553 121.85 33.574 120.538 33.574C119.882 33.574 119.267 33.5057 118.693 33.369C118.119 33.2597 117.586 33.1093 117.094 32.918C116.794 32.754 116.493 32.59 116.192 32.426C115.919 32.2347 115.646 32.057 115.372 31.893C115.099 31.7017 114.853 31.729 114.634 31.975C114.416 32.221 114.252 32.6583 114.142 33.287H113.24C113.295 32.4123 113.336 31.3463 113.363 30.089C113.391 28.8317 113.404 27.1643 113.404 25.087H114.306C114.498 26.5903 114.785 27.916 115.167 29.064C115.55 30.212 116.11 31.114 116.848 31.77C117.614 32.3987 118.652 32.713 119.964 32.713C120.484 32.713 121.003 32.6037 121.522 32.385C122.042 32.139 122.465 31.7563 122.793 31.237C123.149 30.7177 123.326 30.0207 123.326 29.146C123.326 27.9433 122.903 26.9593 122.055 26.194C121.235 25.4013 120.169 24.5677 118.857 23.693C117.928 23.037 117.04 22.3947 116.192 21.766C115.372 21.11 114.703 20.3857 114.183 19.593C113.664 18.773 113.404 17.8027 113.404 16.682C113.404 15.452 113.691 14.4407 114.265 13.648C114.867 12.8553 115.659 12.2677 116.643 11.885C117.627 11.475 118.68 11.27 119.8 11.27ZM137.887 5.079V11.885H143.545V12.705H137.887V28.818C137.887 29.9387 138.092 30.7313 138.502 31.196C138.912 31.6607 139.5 31.893 140.265 31.893C140.976 31.893 141.605 31.606 142.151 31.032C142.725 30.458 143.217 29.4877 143.627 28.121L144.406 28.408C144.078 29.8567 143.491 31.0867 142.643 32.098C141.823 33.082 140.607 33.574 138.994 33.574C138.065 33.574 137.286 33.451 136.657 33.205C136.029 32.9863 135.482 32.6583 135.017 32.221C134.416 31.5923 134.006 30.8407 133.787 29.966C133.569 29.0913 133.459 27.9297 133.459 26.481V12.705H129.687V11.885H133.459V5.899C134.307 5.87166 135.099 5.80333 135.837 5.694C136.575 5.55733 137.259 5.35233 137.887 5.079Z" fill="white"/>
</svg>
